<svg xmlns="http://www.w3.org/2000/svg" viewBox="0 0 512 512" width="512" height="512">
  <defs>
    <radialGradient id="a1bg" cx="50%" cy="50%" r="55%">
      <stop offset="0%" stop-color="#141832"/>
      <stop offset="100%" stop-color="#0A0E1F"/>
    </radialGradient>
    <radialGradient id="a1gold" cx="50%" cy="50%" r="50%">
      <stop offset="0%" stop-color="#E8D5A8"/>
      <stop offset="60%" stop-color="#B8956A"/>
      <stop offset="100%" stop-color="#8A6D42"/>
    </radialGradient>
    <radialGradient id="a1glow" cx="50%" cy="50%" r="50%">
      <stop offset="0%" stop-color="#D4C4A0" stop-opacity="0.18"/>
      <stop offset="70%" stop-color="#B8956A" stop-opacity="0.04"/>
      <stop offset="100%" stop-opacity="0"/>
    </radialGradient>
    <linearGradient id="a1ring" x1="0" y1="0" x2="1" y2="1">
      <stop offset="0%" stop-color="#E8D5A8"/>
      <stop offset="100%" stop-color="#A07E54"/>
    </linearGradient>
    <linearGradient id="a1gem" x1="0.5" y1="0" x2="0.5" y2="1">
      <stop offset="0%" stop-color="#F0E4C8"/>
      <stop offset="50%" stop-color="#D4C4A0"/>
      <stop offset="100%" stop-color="#8A6D42"/>
    </linearGradient>
  </defs>

  <!-- Background -->
  <rect width="512" height="512" rx="112" ry="112" fill="url(#a1bg)"/>
  <circle cx="256" cy="256" r="220" fill="url(#a1glow)"/>

  <!-- 99 Rays with alternating heights (short/medium/tall pattern) -->
  <g transform="translate(256,256)" fill="url(#a1gold)" opacity="0.8">
    <polygon points="0,-185 2.8,-72 0,-64 -2.8,-72" transform="rotate(0)"/>
    <polygon points="0,-165 2,-72 0,-64 -2,-72" transform="rotate(3.636)"/>
    <polygon points="0,-155 1.8,-72 0,-64 -1.8,-72" transform="rotate(7.273)"/>
    <polygon points="0,-185 2.8,-72 0,-64 -2.8,-72" transform="rotate(10.909)"/>
    <polygon points="0,-165 2,-72 0,-64 -2,-72" transform="rotate(14.545)"/>
    <polygon points="0,-155 1.8,-72 0,-64 -1.8,-72" transform="rotate(18.182)"/>
    <polygon points="0,-185 2.8,-72 0,-64 -2.8,-72" transform="rotate(21.818)"/>
    <polygon points="0,-165 2,-72 0,-64 -2,-72" transform="rotate(25.455)"/>
    <polygon points="0,-155 1.8,-72 0,-64 -1.8,-72" transform="rotate(29.091)"/>
    <polygon points="0,-185 2.8,-72 0,-64 -2.8,-72" transform="rotate(32.727)"/>
    <polygon points="0,-165 2,-72 0,-64 -2,-72" transform="rotate(36.364)"/>
    <polygon points="0,-155 1.8,-72 0,-64 -1.8,-72" transform="rotate(40)"/>
    <polygon points="0,-185 2.8,-72 0,-64 -2.8,-72" transform="rotate(43.636)"/>
    <polygon points="0,-165 2,-72 0,-64 -2,-72" transform="rotate(47.273)"/>
    <polygon points="0,-155 1.8,-72 0,-64 -1.8,-72" transform="rotate(50.909)"/>
    <polygon points="0,-185 2.8,-72 0,-64 -2.8,-72" transform="rotate(54.545)"/>
    <polygon points="0,-165 2,-72 0,-64 -2,-72" transform="rotate(58.182)"/>
    <polygon points="0,-155 1.8,-72 0,-64 -1.8,-72" transform="rotate(61.818)"/>
    <polygon points="0,-185 2.8,-72 0,-64 -2.8,-72" transform="rotate(65.455)"/>
    <polygon points="0,-165 2,-72 0,-64 -2,-72" transform="rotate(69.091)"/>
    <polygon points="0,-155 1.8,-72 0,-64 -1.8,-72" transform="rotate(72.727)"/>
    <polygon points="0,-185 2.8,-72 0,-64 -2.8,-72" transform="rotate(76.364)"/>
    <polygon points="0,-165 2,-72 0,-64 -2,-72" transform="rotate(80)"/>
    <polygon points="0,-155 1.8,-72 0,-64 -1.8,-72" transform="rotate(83.636)"/>
    <polygon points="0,-185 2.8,-72 0,-64 -2.8,-72" transform="rotate(87.273)"/>
    <polygon points="0,-165 2,-72 0,-64 -2,-72" transform="rotate(90.909)"/>
    <polygon points="0,-155 1.8,-72 0,-64 -1.8,-72" transform="rotate(94.545)"/>
    <polygon points="0,-185 2.8,-72 0,-64 -2.8,-72" transform="rotate(98.182)"/>
    <polygon points="0,-165 2,-72 0,-64 -2,-72" transform="rotate(101.818)"/>
    <polygon points="0,-155 1.8,-72 0,-64 -1.8,-72" transform="rotate(105.455)"/>
    <polygon points="0,-185 2.8,-72 0,-64 -2.8,-72" transform="rotate(109.091)"/>
    <polygon points="0,-165 2,-72 0,-64 -2,-72" transform="rotate(112.727)"/>
    <polygon points="0,-155 1.8,-72 0,-64 -1.8,-72" transform="rotate(116.364)"/>
    <polygon points="0,-185 2.8,-72 0,-64 -2.8,-72" transform="rotate(120)"/>
    <polygon points="0,-165 2,-72 0,-64 -2,-72" transform="rotate(123.636)"/>
    <polygon points="0,-155 1.8,-72 0,-64 -1.8,-72" transform="rotate(127.273)"/>
    <polygon points="0,-185 2.8,-72 0,-64 -2.8,-72" transform="rotate(130.909)"/>
    <polygon points="0,-165 2,-72 0,-64 -2,-72" transform="rotate(134.545)"/>
    <polygon points="0,-155 1.8,-72 0,-64 -1.8,-72" transform="rotate(138.182)"/>
    <polygon points="0,-185 2.8,-72 0,-64 -2.8,-72" transform="rotate(141.818)"/>
    <polygon points="0,-165 2,-72 0,-64 -2,-72" transform="rotate(145.455)"/>
    <polygon points="0,-155 1.8,-72 0,-64 -1.8,-72" transform="rotate(149.091)"/>
    <polygon points="0,-185 2.8,-72 0,-64 -2.8,-72" transform="rotate(152.727)"/>
    <polygon points="0,-165 2,-72 0,-64 -2,-72" transform="rotate(156.364)"/>
    <polygon points="0,-155 1.8,-72 0,-64 -1.8,-72" transform="rotate(160)"/>
    <polygon points="0,-185 2.8,-72 0,-64 -2.8,-72" transform="rotate(163.636)"/>
    <polygon points="0,-165 2,-72 0,-64 -2,-72" transform="rotate(167.273)"/>
    <polygon points="0,-155 1.8,-72 0,-64 -1.8,-72" transform="rotate(170.909)"/>
    <polygon points="0,-185 2.8,-72 0,-64 -2.8,-72" transform="rotate(174.545)"/>
    <polygon points="0,-165 2,-72 0,-64 -2,-72" transform="rotate(178.182)"/>
    <polygon points="0,-155 1.8,-72 0,-64 -1.8,-72" transform="rotate(181.818)"/>
    <polygon points="0,-185 2.8,-72 0,-64 -2.8,-72" transform="rotate(185.455)"/>
    <polygon points="0,-165 2,-72 0,-64 -2,-72" transform="rotate(189.091)"/>
    <polygon points="0,-155 1.8,-72 0,-64 -1.8,-72" transform="rotate(192.727)"/>
    <polygon points="0,-185 2.8,-72 0,-64 -2.8,-72" transform="rotate(196.364)"/>
    <polygon points="0,-165 2,-72 0,-64 -2,-72" transform="rotate(200)"/>
    <polygon points="0,-155 1.8,-72 0,-64 -1.8,-72" transform="rotate(203.636)"/>
    <polygon points="0,-185 2.8,-72 0,-64 -2.8,-72" transform="rotate(207.273)"/>
    <polygon points="0,-165 2,-72 0,-64 -2,-72" transform="rotate(210.909)"/>
    <polygon points="0,-155 1.8,-72 0,-64 -1.8,-72" transform="rotate(214.545)"/>
    <polygon points="0,-185 2.8,-72 0,-64 -2.8,-72" transform="rotate(218.182)"/>
    <polygon points="0,-165 2,-72 0,-64 -2,-72" transform="rotate(221.818)"/>
    <polygon points="0,-155 1.8,-72 0,-64 -1.8,-72" transform="rotate(225.455)"/>
    <polygon points="0,-185 2.8,-72 0,-64 -2.8,-72" transform="rotate(229.091)"/>
    <polygon points="0,-165 2,-72 0,-64 -2,-72" transform="rotate(232.727)"/>
    <polygon points="0,-155 1.8,-72 0,-64 -1.8,-72" transform="rotate(236.364)"/>
    <polygon points="0,-185 2.8,-72 0,-64 -2.8,-72" transform="rotate(240)"/>
    <polygon points="0,-165 2,-72 0,-64 -2,-72" transform="rotate(243.636)"/>
    <polygon points="0,-155 1.8,-72 0,-64 -1.8,-72" transform="rotate(247.273)"/>
    <polygon points="0,-185 2.8,-72 0,-64 -2.8,-72" transform="rotate(250.909)"/>
    <polygon points="0,-165 2,-72 0,-64 -2,-72" transform="rotate(254.545)"/>
    <polygon points="0,-155 1.8,-72 0,-64 -1.8,-72" transform="rotate(258.182)"/>
    <polygon points="0,-185 2.8,-72 0,-64 -2.8,-72" transform="rotate(261.818)"/>
    <polygon points="0,-165 2,-72 0,-64 -2,-72" transform="rotate(265.455)"/>
    <polygon points="0,-155 1.8,-72 0,-64 -1.8,-72" transform="rotate(269.091)"/>
    <polygon points="0,-185 2.8,-72 0,-64 -2.8,-72" transform="rotate(272.727)"/>
    <polygon points="0,-165 2,-72 0,-64 -2,-72" transform="rotate(276.364)"/>
    <polygon points="0,-155 1.8,-72 0,-64 -1.8,-72" transform="rotate(280)"/>
    <polygon points="0,-185 2.8,-72 0,-64 -2.8,-72" transform="rotate(283.636)"/>
    <polygon points="0,-165 2,-72 0,-64 -2,-72" transform="rotate(287.273)"/>
    <polygon points="0,-155 1.8,-72 0,-64 -1.8,-72" transform="rotate(290.909)"/>
    <polygon points="0,-185 2.8,-72 0,-64 -2.8,-72" transform="rotate(294.545)"/>
    <polygon points="0,-165 2,-72 0,-64 -2,-72" transform="rotate(298.182)"/>
    <polygon points="0,-155 1.8,-72 0,-64 -1.8,-72" transform="rotate(301.818)"/>
    <polygon points="0,-185 2.8,-72 0,-64 -2.8,-72" transform="rotate(305.455)"/>
    <polygon points="0,-165 2,-72 0,-64 -2,-72" transform="rotate(309.091)"/>
    <polygon points="0,-155 1.8,-72 0,-64 -1.8,-72" transform="rotate(312.727)"/>
    <polygon points="0,-185 2.8,-72 0,-64 -2.8,-72" transform="rotate(316.364)"/>
    <polygon points="0,-165 2,-72 0,-64 -2,-72" transform="rotate(320)"/>
    <polygon points="0,-155 1.8,-72 0,-64 -1.8,-72" transform="rotate(323.636)"/>
    <polygon points="0,-185 2.8,-72 0,-64 -2.8,-72" transform="rotate(327.273)"/>
    <polygon points="0,-165 2,-72 0,-64 -2,-72" transform="rotate(330.909)"/>
    <polygon points="0,-155 1.8,-72 0,-64 -1.8,-72" transform="rotate(334.545)"/>
    <polygon points="0,-185 2.8,-72 0,-64 -2.8,-72" transform="rotate(338.182)"/>
    <polygon points="0,-165 2,-72 0,-64 -2,-72" transform="rotate(341.818)"/>
    <polygon points="0,-155 1.8,-72 0,-64 -1.8,-72" transform="rotate(345.455)"/>
    <polygon points="0,-185 2.8,-72 0,-64 -2.8,-72" transform="rotate(349.091)"/>
    <polygon points="0,-165 2,-72 0,-64 -2,-72" transform="rotate(352.727)"/>
    <polygon points="0,-155 1.8,-72 0,-64 -1.8,-72" transform="rotate(356.364)"/>
  </g>

  <!-- Outer rings -->
  <circle cx="256" cy="256" r="188" fill="none" stroke="url(#a1ring)" stroke-width="0.7" opacity="0.3"/>

  <!-- Center: Faceted gem / diamond shape -->
  <g transform="translate(256,256)">
    <!-- Dark circle base -->
    <circle r="68" fill="#0A0E1F"/>
    <circle r="68" fill="none" stroke="url(#a1ring)" stroke-width="1.5" opacity="0.6"/>
    <circle r="62" fill="none" stroke="#B8956A" stroke-width="0.5" opacity="0.2"/>

    <!-- 8-pointed Islamic star in center -->
    <g fill="url(#a1gem)" opacity="0.9">
      <!-- Star formed by two overlapping rotated squares -->
      <rect x="-24" y="-24" width="48" height="48" rx="2" transform="rotate(0)"/>
      <rect x="-24" y="-24" width="48" height="48" rx="2" transform="rotate(45)"/>
    </g>

    <!-- Inner star detail - smaller 8-point -->
    <g fill="#0A0E1F" opacity="0.6">
      <rect x="-14" y="-14" width="28" height="28" rx="1" transform="rotate(0)"/>
      <rect x="-14" y="-14" width="28" height="28" rx="1" transform="rotate(45)"/>
    </g>

    <!-- Tiny center dot -->
    <circle r="4" fill="#D4C4A0" opacity="0.8"/>
  </g>
</svg>