<svg xmlns="http://www.w3.org/2000/svg" viewBox="0 0 512 512" width="512" height="512">
  <defs>
    <radialGradient id="a7bg" cx="50%" cy="50%" r="55%">
      <stop offset="0%" stop-color="#141832"/>
      <stop offset="100%" stop-color="#0A0E1F"/>
    </radialGradient>
    <linearGradient id="a7gold" x1="0" y1="0" x2="1" y2="1">
      <stop offset="0%" stop-color="#E8D5A8"/>
      <stop offset="100%" stop-color="#A07E54"/>
    </linearGradient>
    <radialGradient id="a7fade" cx="50%" cy="50%" r="50%">
      <stop offset="0%" stop-color="#D4C4A0" stop-opacity="1"/>
      <stop offset="60%" stop-color="#B8956A" stop-opacity="0.7"/>
      <stop offset="85%" stop-color="#8A6D42" stop-opacity="0.25"/>
      <stop offset="100%" stop-color="#8A6D42" stop-opacity="0"/>
    </radialGradient>
    <mask id="a7mask">
      <radialGradient id="a7maskGrad" cx="50%" cy="50%" r="45%">
        <stop offset="0%" stop-color="white"/>
        <stop offset="65%" stop-color="white" stop-opacity="0.8"/>
        <stop offset="100%" stop-color="black"/>
      </radialGradient>
      <rect width="512" height="512" fill="url(#a7maskGrad)"/>
    </mask>
    <radialGradient id="a7glow" cx="50%" cy="50%" r="35%">
      <stop offset="0%" stop-color="#D4C4A0" stop-opacity="0.12"/>
      <stop offset="100%" stop-opacity="0"/>
    </radialGradient>
    <radialGradient id="a7center" cx="50%" cy="50%" r="50%">
      <stop offset="0%" stop-color="#1A1E38"/>
      <stop offset="100%" stop-color="#0A0E1F"/>
    </radialGradient>
    <linearGradient id="a7textGold" x1="0.5" y1="0" x2="0.5" y2="1">
      <stop offset="0%" stop-color="#F0E4C8"/>
      <stop offset="100%" stop-color="#C8A96E"/>
    </linearGradient>
  </defs>

  <!-- Background -->
  <rect width="512" height="512" rx="112" ry="112" fill="url(#a7bg)"/>
  <circle cx="256" cy="256" r="190" fill="url(#a7glow)"/>

  <!-- Islamic tessellation pattern (fading from center outward) -->
  <g mask="url(#a7mask)" stroke="#D4C4A0" fill="none" stroke-width="1.2" opacity="0.75">
    <!-- Row 1 -->
    <g transform="translate(256,136)">
      <rect x="-20" y="-20" width="40" height="40" transform="rotate(45)"/>
    </g>
    <!-- Row 2 -->
    <g transform="translate(216,176)">
      <rect x="-20" y="-20" width="40" height="40" transform="rotate(45)"/>
    </g>
    <g transform="translate(296,176)">
      <rect x="-20" y="-20" width="40" height="40" transform="rotate(45)"/>
    </g>
    <!-- Row 3 -->
    <g transform="translate(176,216)">
      <rect x="-20" y="-20" width="40" height="40" transform="rotate(45)"/>
    </g>
    <g transform="translate(256,216)">
      <rect x="-20" y="-20" width="40" height="40" transform="rotate(45)"/>
    </g>
    <g transform="translate(336,216)">
      <rect x="-20" y="-20" width="40" height="40" transform="rotate(45)"/>
    </g>
    <!-- Row 4 (center row) -->
    <g transform="translate(136,256)">
      <rect x="-20" y="-20" width="40" height="40" transform="rotate(45)"/>
    </g>
    <g transform="translate(216,256)">
      <rect x="-20" y="-20" width="40" height="40" transform="rotate(45)"/>
    </g>
    <g transform="translate(296,256)">
      <rect x="-20" y="-20" width="40" height="40" transform="rotate(45)"/>
    </g>
    <g transform="translate(376,256)">
      <rect x="-20" y="-20" width="40" height="40" transform="rotate(45)"/>
    </g>
    <!-- Row 5 -->
    <g transform="translate(176,296)">
      <rect x="-20" y="-20" width="40" height="40" transform="rotate(45)"/>
    </g>
    <g transform="translate(256,296)">
      <rect x="-20" y="-20" width="40" height="40" transform="rotate(45)"/>
    </g>
    <g transform="translate(336,296)">
      <rect x="-20" y="-20" width="40" height="40" transform="rotate(45)"/>
    </g>
    <!-- Row 6 -->
    <g transform="translate(216,336)">
      <rect x="-20" y="-20" width="40" height="40" transform="rotate(45)"/>
    </g>
    <g transform="translate(296,336)">
      <rect x="-20" y="-20" width="40" height="40" transform="rotate(45)"/>
    </g>
    <!-- Row 7 -->
    <g transform="translate(256,376)">
      <rect x="-20" y="-20" width="40" height="40" transform="rotate(45)"/>
    </g>

    <!-- Connecting diamonds (smaller, between the main ones) -->
    <g stroke-width="0.7" opacity="0.5">
      <g transform="translate(256,176)">
        <rect x="-8" y="-8" width="16" height="16" transform="rotate(45)"/>
      </g>
      <g transform="translate(196,196)">
        <rect x="-8" y="-8" width="16" height="16" transform="rotate(45)"/>
      </g>
      <g transform="translate(316,196)">
        <rect x="-8" y="-8" width="16" height="16" transform="rotate(45)"/>
      </g>
      <g transform="translate(156,236)">
        <rect x="-8" y="-8" width="16" height="16" transform="rotate(45)"/>
      </g>
      <g transform="translate(236,236)">
        <rect x="-8" y="-8" width="16" height="16" transform="rotate(45)"/>
      </g>
      <g transform="translate(276,236)">
        <rect x="-8" y="-8" width="16" height="16" transform="rotate(45)"/>
      </g>
      <g transform="translate(356,236)">
        <rect x="-8" y="-8" width="16" height="16" transform="rotate(45)"/>
      </g>
      <g transform="translate(176,256)">
        <rect x="-8" y="-8" width="16" height="16" transform="rotate(45)"/>
      </g>
      <g transform="translate(336,256)">
        <rect x="-8" y="-8" width="16" height="16" transform="rotate(45)"/>
      </g>
      <g transform="translate(156,276)">
        <rect x="-8" y="-8" width="16" height="16" transform="rotate(45)"/>
      </g>
      <g transform="translate(236,276)">
        <rect x="-8" y="-8" width="16" height="16" transform="rotate(45)"/>
      </g>
      <g transform="translate(276,276)">
        <rect x="-8" y="-8" width="16" height="16" transform="rotate(45)"/>
      </g>
      <g transform="translate(356,276)">
        <rect x="-8" y="-8" width="16" height="16" transform="rotate(45)"/>
      </g>
      <g transform="translate(196,316)">
        <rect x="-8" y="-8" width="16" height="16" transform="rotate(45)"/>
      </g>
      <g transform="translate(316,316)">
        <rect x="-8" y="-8" width="16" height="16" transform="rotate(45)"/>
      </g>
      <g transform="translate(256,336)">
        <rect x="-8" y="-8" width="16" height="16" transform="rotate(45)"/>
      </g>
    </g>
  </g>

  <!-- ========== Center: text area replacing the star ========== -->
  <g transform="translate(256,256)">
    <!-- Dark circle background for text -->
    <circle r="72" fill="url(#a7center)"/>
    <circle r="72" fill="none" stroke="#D4C4A0" stroke-width="1" opacity="0.45"/>
    <circle r="66" fill="none" stroke="#B8956A" stroke-width="0.5" opacity="0.2"/>

    <!-- Tiny 8-pointed star ornament above "99" -->
    <g transform="translate(0,-48)" opacity="0.5">
      <g fill="#D4C4A0">
        <rect x="-4" y="-4" width="8" height="8" rx="0.5" transform="rotate(0)"/>
        <rect x="-4" y="-4" width="8" height="8" rx="0.5" transform="rotate(45)"/>
      </g>
      <circle r="1.5" fill="#0D1430"/>
    </g>

    <!-- Large "99" -->
    <text x="0" y="-18" text-anchor="middle" dominant-baseline="middle"
          font-family="'Playfair Display','Georgia',serif"
          font-size="48" font-weight="700" fill="url(#a7textGold)" opacity="0.9"
          letter-spacing="3">
      99
    </text>

    <!-- Decorative divider -->
    <line x1="-38" y1="2" x2="38" y2="2" stroke="#D4C4A0" stroke-width="0.6" opacity="0.4"/>
    <polygon points="-42,2 -40,-1 -38,2 -40,5" fill="#D4C4A0" opacity="0.35"/>
    <polygon points="42,2 40,-1 38,2 40,5" fill="#D4C4A0" opacity="0.35"/>

    <!-- "NAMES" -->
    <text x="0" y="20" text-anchor="middle" dominant-baseline="middle"
          font-family="'Playfair Display','Georgia',serif"
          font-size="14" font-weight="600" fill="#D4C4A0" opacity="0.75"
          letter-spacing="6">
      NAMES
    </text>

    <!-- "of" -->
    <text x="0" y="35" text-anchor="middle" dominant-baseline="middle"
          font-family="'Playfair Display','Georgia',serif"
          font-size="10" font-style="italic" font-weight="300" fill="#B8956A" opacity="0.55"
          letter-spacing="2">
      of
    </text>

    <!-- "ALLAH" -->
    <text x="0" y="52" text-anchor="middle" dominant-baseline="middle"
          font-family="'Playfair Display','Georgia',serif"
          font-size="16" font-weight="700" fill="url(#a7textGold)" opacity="0.85"
          letter-spacing="7">
      ALLAH
    </text>

    <!-- Tiny 8-pointed star ornament below text -->
    <g transform="translate(0,65)" opacity="0.35">
      <g fill="#D4C4A0">
        <rect x="-3" y="-3" width="6" height="6" rx="0.5" transform="rotate(0)"/>
        <rect x="-3" y="-3" width="6" height="6" rx="0.5" transform="rotate(45)"/>
      </g>
    </g>
  </g>
</svg>